<svg id="katman_1" data-name="katman 1" xmlns="http://www.w3.org/2000/svg" viewBox="0 0 100 100"><title>referandom</title><g id="Page-1"><path d="M41.07,17.18h6.39V36.94h2.78V11.82h6.42V37h2.9V6H66V37h3.6V13.11h6.48v33l.18.06,8-10.66L89.67,39c-.16.3-.29.57-.44.82-2.82,4.91-5.6,9.84-8.5,14.7a30.77,30.77,0,0,1-3.48,4.55c-2.73,3.07-5.55,6.06-8.36,9.06a2.45,2.45,0,0,0-.69,1.79q0,14.16,0,28.33c0,1.84-.08,1.92-1.92,1.93-6.53,0-13.05,0-19.58,0-2.83,0-2.32,0-2.32-2.27q0-13.41,0-26.83a9.06,9.06,0,0,0-1-4.16c-2.76-5.51-2.31-3.81-2.31-9.91q0-19.41,0-38.83C41.07,17.88,41.07,17.55,41.07,17.18Z"/><path d="M1.49,55.34l4-2.57,5.95,7.92V36.41h4.76V53.87h2.63V31.2h4.74V53.84h2.11V35.47h4.74V53.86h2V39.4h4.72v.92c0,10.19,0,20.39,0,30.58a5.88,5.88,0,0,1-.68,2.86,14,14,0,0,0-1.73,7.73c.13,5.89,0,11.78.06,17.66,0,.93-.46,1.05-1.18,1.05-4.69,0-9.39,0-14.08,0-2.46,0-2.22.31-2.22-2.35q0-9.75,0-19.5a2.49,2.49,0,0,0-.73-1.86c-2-2.16-4.09-4.32-6-6.56A27.24,27.24,0,0,1,7.65,66C5.56,62.53,3.57,59,1.49,55.34Z"/><path d="M78.5,66.26h2.61v8h1.13V64.1h2.63V74.3h1.18V61.72h2.68v12.6h1.41V64.63h2.65V77.88l.19.07,3.17-4.21,2.27,1.45c-2,2.93-3.19,6.35-5.78,8.9C91.72,85,90.85,86,90,87a1.88,1.88,0,0,0-.39,1.11q0,5.62,0,11.25c0,.65-.22.89-.86.88q-4,0-8.08,0c-.62,0-.82-.22-.81-.83,0-3.56,0-7.11,0-10.67a5.81,5.81,0,0,0-.55-2.38,7.48,7.48,0,0,1-.8-3.43c0-5.19,0-10.39,0-15.58Z"/></g></svg>